/* XPM */
static char * smaller_pokeball_xpm[] = {
"32 32 10 1",
"A c grey",
"B c #38ae43",
"C c #38ad43",
"D c #2e9d37",
"E c #39af44",
"F c #894540",
"G c #145315",
"H c #a80000",
"I c #1b1714",
"  c darkgreen",
"EEEEEEEEEEEEEEEEEEEEEEEEEEEEEEEE",
"EEEEEEEEEEEEEEEEEEEEEEEEEEEEEEEE",
"EE  EE  EEEEEEEEEEEEEEEEEEEEEEEE",
"EE  EE  EEEEEEEEEEEEEEEEEEEEEEEE",
"EE  EE  EEEEEEEEEEEEEEEEEEEEEEEE",
"EE  EB  BB  BB  BBBBBBBBBBEEEEEE",
"EEEEEBBBBB  BB  BBBBBBBBBBBEEEEE",
"EEEEEBBBBBCCBCEEEBBCBBBBBBBEEEEE",
"EEEEEBBCBBEECGIIIDDGDBBBBBBEEEEE",
"EEEE  DEDEIIIHHIIIIIDBBBBBEEEEEE",
"EEEE  DEEIIHHHHHHHHIIIDBBBBEEEEE",
"EEEE  CEIIHHHHHHHHHHIIIDBBDEEEEE",
"EEEE  DEIHHHHHHHHHHHIIIEBBEEEEEE",
"EEEEEDCDIHFHHHHHHHHIIFEBBCDEEEEE",
"EEEEECCEIFAAAHHHHHIIIFIDBBCEEEEE",
"EEEEEBEIHFAAAFHHHIIIGAFICBBEEEEE",
"EEEEEBEIHHAAAAIAFIIFAAAECBBEEEEE",
"EEEEEBEIHHHFAHIAAFFAAAIECBBEEEEE",
"EEEEEBBDIHHHHHIIGIFAAAEDBBCEEEEE",
"EEEEEBBDIHHHHHIIFFAAAFEBBCDEEEEE",
"EEEEEDDEIHHHHIIAAAAAFIIEDDEEEEEE",
"EEEEEECDIIIFFIAAAAAFIIECBD  EE  ",
"EEEEEDBBDIIFAFAAAAFIIECBBB  EE  ",
"EEEEEBBBBDIIEIFFIEEIECBBBB  EE  ",
"EEEEEBBBBBEECEIIIDDEDBBBBB  EE  ",
"EEEEEBBBBBBBBBDDDBBBBBBBBBBEEEEE",
"EEEEEBBBBBBBBBBBBBBB  BB  BEEEEE",
"EEEEEEEEEEEEEEEEEEEE  EE  EEEEEE",
"EEEEEEEEEEEEEEEEEEEE  EE  EEEEEE",
"EEEEEEEEEEEEEEEEEEEE  EE  EEEEEE",
"EEEEEEEEEEEEEEEEEEEEEEEEEEEEEEEE",
"EEEEEEEEEEEEEEEEEEEEEEEEEEEEEEEE",
};