/* XPM */
static char *bf75cff63195490fc8ac41bb0495c42atHEnM3wNlEgV2P3S[] = {
/* columns rows colors chars-per-pixel */
"32 32 4 1 ",
"  c #39af44",
". c #040404",
"X c red",
"o c #F8F8F8",
/* pixels */
"                                ",
"                                ",
"                                ",
"                                ",
"            ........            ",
"            ........            ",
"        ....XXXXXXXX....        ",
"        ....XXXXXXXX....        ",
"      ..XXXXXXXXXXXXXXXX..      ",
"      ..XXXXXXXXXXXXXXXX..      ",
"      ..XXXXXXXXXXXXXXXX..      ",
"      ..XXXXXXXXXXXXXXXX..      ",
"    ..XXXXXXXXXXXXXXXXXXXX..    ",
"    ..XXXXXXX......XXXXXXX..    ",
"    ..XXXXX...oooo...XXXXX..    ",
"    ..XXXX...oooooo...XXXX..    ",
"    ........oooooooo........    ",
"    ........oooooooo........    ",
"    .........oooooo.........    ",
"    ..ooooo...oooo...ooooo..    ",
"      ..ooooo......ooooo..      ",
"      ..oooooooooooooooo..      ",
"      ..oooooooooooooooo..      ",
"      ..  oooooooooooooo..      ",
"        ....oooooooo....        ",
"        ....oooooooo....        ",
"            ........            ",
"            ........            ",
"                                ",
"                                ",
"                                ",
"                                "
};