/* XPM */
static char * smaller_pokeball_xpm[] = {
"32 32 10 1",
"A c #bda8a2",
"B c #38ae43",
"C c #38ad43",
"D c #2e9d37",
"E c #39af44",
"F c #894540",
"G c #145315",
"H c #d02828",
"I c #1b1714",
"  c darkgreen",
"EEEEEEEEEEEEEEEEEEEEEEEEEEEEEEEE",
"EEEEEEEEEEEEEEEEEEEEEEEEEEEEEEEE",
"EE  EE  EEEEEEEEEEEEEEEEEEEEEEEE",
"EE  EE  EEEEEEEEEEEEEEEEEEEEEEEE",
"EE  EE  EEEEEEEEEEEEEEEEEEEEEEEE",
"EE  EB  BBBBBBBBBBBBBBBBBBDEEEEE",
"EEEEEBBBBBBBBBBBBBBBBBBBBBBEEEEE",
"EEEEEBBBBBCCBCGGGBBCBBBBBBBEEEEE",
"EEEEEBBCBBGGCGIIIDDGDBBBBBBEEEEE",
"EEEEEBDGDGIIGIHHIIIIIDBBBBBEEEEE",
"EEEEEBDGGIIHHHHHHHHIIIDBBBBEEEEE",
"EEEEECCGIIHHHHHHHHHHIIIDBBDEEEEE",
"EEEEEDDGIHHHHHHHHHHHIIIGBBGEEEEE",
"EEEEEDCDIHFHHHHHHHHIIFGBBCDEEEEE",
"EEEEECCGIFAAAHHHHHIIIFIDBBCEEEEE",
"EEEEEBGIHFAAAFHHHIIIGAFICBBEEEEE",
"EEEEEBGHHHAAAAIAFIIFAAAGCBBEEEEE",
"EEEEEBGIHHHFAHIAAFFAAAIGCBBEEEEE",
"EEEEEBBDIHHHHHIIGIFAAAGDBBCEEEEE",
"EEEEEBBDIHHHHHIIFFAAAFGBBCDEEEEE",
"EEEEEDDGIHHHHIIAAAAAFIIGDDGEEEEE",
"EEEEEGCDIIIFFIAAAAAFIIGCBDGEEEEE",
"EEEEEDBBDIIFAFAAAAFIIGCBBBDEEEEE",
"EEEEEBBBBDIIGIFFIGGIGCBBBBBEEEEE",
"EEEEEBBBBBGGCGIIIDDGDBBBBBBEEEEE",
"EEEEEBBBBBBBBBDDDBBBBBBBBBBEEEEE",
"EEEEEBBBBBBBBBBBBBBBBBBBBBBEEEEE",
"EEEEEEEEEEEEEEEEEEEEEEEEEEEEEEEE",
"EEEEEEEEEEEEEEEEEEEEEEEEEEEEEEEE",
"EEEEEEEEEEEEEEEEEEEEEEEEEEEEEEEE",
"EEEEEEEEEEEEEEEEEEEEEEEEEEEEEEEE",
"EEEEEEEEEEEEEEEEEEEEEEEEEEEEEEEE",
};