/* XPM */
static char * small_pokeball_xpm[] = {
"32 32 9 1",
"A c #39af44",
"B c #39af44",
"C c lightgrey",
"D c grey",
"E c #a80000",
"F c #a80000",
"G c #800000",
"H c #000000",
"  c darkgreen",
/* pixels */
"BBBBBBBBBBBBBBBBBBBBBBBBBBBBBBBB",
"BBBBBBBBBBBBBBBBBBBBBBBBBBBBBBBB",
"BB  BB  BBBBBBBBBBBBBBBBBBBBBBBB",
"BB  BB  BBBBBBBBBBBBBBBBBBBBBBBB",
"BB  BB  BBBBBBBBBBBBBBBBBBBBBBBB",
"BB  BB  BB  BB  BBBBBBBBBBBBBBBB",
"BBBBBBBBBB  BB  BBBBBBBBBBBBBBBB",
"BBBBBBBAAAAAAHHHHHHAAAAAABBBBBBB",
"BBBBBBBAAAAAAHHHHHHAAAAAABBBBBBB",
"BBBB  BAAAHHHFFFFFFHHHAAABBBBBBB",
"BBBB  BAAHFFECCEEFFFGGHAABBBBBBB",
"BBBB  BAAHFFECCEEFFFGGHAABBBBBBB",
"BBBB  BAAHEECCCCEEEFFFHAABBBBBBB",
"BBBBBBBHHFEEECCEEEEFFFGHHBBBBBBB",
"BBBBBBBHHFEEECCEEEEFFFGHHBBBBBBB",
"BBBBBBBHHEEEEEEHHFFFFFGHHBBBBBBB",
"BBBBBBBHHHEEEHHCDHHFGGHHHBBBBBBB",
"BBBBBBBHHCHHHHHDDHHHHHDHHBBBBBBB",
"BBBBBBBHHCHHHHHDDHHHHHDHHBBBBBBB",
"BBBBBBBAAHCCCCCHHDDDDDHAABBBBBBB",
"BBBBBBBAAHDDCCCCDDDDDDHAABBBBBBB",
"BBBBBBBAAHDDCCCCDDDDDDHAAB  BB  ",
"BBBBBBBAAAHHHDDDDDDHHHAAAB  BB  ",
"BBBBBBBAAAAAAHHHHHHAAAAAAB  BB  ",
"BBBBBBBAAAAAAHHHHHHAAAAAAB  BB  ",
"BBBBBBBBBBBBBBBBBBBBBBBBBBBBBBBB",
"BBBBBBBBBBBBBBBBBBBB  BB  BBBBBB",
"BBBBBBBBBBBBBBBBBBBB  BB  BBBBBB",
"BBBBBBBBBBBBBBBBBBBB  BB  BBBBBB",
"BBBBBBBBBBBBBBBBBBBB  BB  BBBBBB",
"BBBBBBBBBBBBBBBBBBBBBBBBBBBBBBBB",
"BBBBBBBBBBBBBBBBBBBBBBBBBBBBBBBB",
};