/* XPM */
static char * gastly_xpm[] = {
"32 32 8 1",
"A c #f0f0f2",
"B c #dbd9da",
"C c #39af44",
"D c #d9d9d8",
"E c #d8d9d8",
"F c #39af44",
"G c #a085a5",
"H c #3a3237",
"FFFFFFFFFFFFFFFFFFFFFFFFFFFFFFFF",
"FCCCCCCCCCCCCGCCCCCCCCCCCCCCCCCF",
"FCCCCCCCCCCCGGCCCCCCCCCCCCCCCCCF",
"FCCCCCCCCCCEEECCCCCCCCCCCCCCCCCF",
"FCCCCCCCCFECFGCCCCEECCEFCCCCCCCF",
"FCCCCCCCGGGGGGECEEGGGCFGGCCCCCCF",
"FCCCCCCGGGGGGCCEGGGGGGGGGCCCCCCF",
"FCCCCCCGGGGGGGGGGGGGGGGGGECCCCCF",
"FCCCCCEGGGGHHHHGGGGGGGCGGCCCCCCF",
"FCFCCGGGGGGHHHHGHHGGGCDECCCCCCCF",
"FGGEDGGHGHHHHHHHHHHGGGCEGFCCCCCF",
"FCEGGGHHHHHHHHHHHHHHGGGGGGCCCGCF",
"FCGGGHHHHHHHHHHHHHHHGGGGGGGCEGCF",
"FEGGAGHHHHHHHHHHHHHHHGGGGGGEGGEF",
"FCGGAHHHHHHHHHHHHHAHHGGGGGECFGEF",
"FCEAAAHHHHHHHHHHBBBHHHGGGEEECECF",
"FCCAAAHHHHHHHHHAABBFHHGGGCCGGECF",
"FCCAAAAHHHHHHHAAAABAHHGGGCCGGGCF",
"FCCGAAAGHHHHAAAAAAABHHGGGGGGGGCF",
"FCCGAAABHHHAAAAAAABHHHGGGGGGGGEF",
"FCFGAAAAHHHAAAAAAAAHHHGGGGGGGGCF",
"FCCGHABHHHHFAAABAAHHHHGGGGGGGCCF",
"FCEGGHHHHHHHHBBBABHHHGGGGGGECCCF",
"FCCCGGGHHHHHHHHHHHHHHGGGGGGECCCF",
"FCCCCHGHGHHHHHHHHHHHGGGGCEECCCCF",
"FCCCCGGGHGGGGGHHHHGGGGGGCCCCCCCF",
"FCCCCECEGHHHHHHHHGGGGGGGEECCCCCF",
"FCCCCCCCGGGGGGGGGGEGGGGFFGECCCCF",
"FCCCCCCCGGGGGEGGGGCCGGCECECCCCCF",
"FCCCCCCCCEGGGECGGCCCCECECCCCCCCF",
"FCCCCCCCCCCEECCCCCCCCCCCCCCCCCCF",
"FFFFFFFFFFFFFFFFFFFFFFFFFFFFFFFF",
};