/* XPM */
static char *icon[] = {
/* width height num_colors chars_per_pixel */
"16 16 4 1",
/* colors */
"  c #000000",
". c #FFFFFF",
"X c #FF0000",
"o c #0000FF",
/* pixels */
"                ",
" .............. ",
" .XXXXXXXXXXXX. ",
" .XXXXXXXXXXXX. ",
" .XXooooooooXX. ",
" .XXooooooooXX. ",
" .XXooooooooXX. ",
" .XXooooooooXX. ",
" .XXooooooooXX. ",
" .XXooooooooXX. ",
" .XXooooooooXX. ",
" .XXooooooooXX. ",
" .XXXXXXXXXXXX. ",
" .XXXXXXXXXXXX. ",
" .............. ",
"                "
};
