/* XPM */
static char *_0496364802346b6e7441e23a190a545qmkecENOG6Nes0RN[] = {
/* columns rows colors chars-per-pixel */
"32 32 26 1 ",
"  c #39af44",
". c black",
"X c gray3",
"o c #0C0C0C",
"O c #0E0E0E",
"+ c #111111",
"@ c white",
"# c #131313",
"$ c gray8",
"% c white",
"& c #181818",
"* c white",
"= c gray11",
"- c #A0A0A0",
"; c gray64",
": c red",
"> c #A9A9A9",
", c #AAAAAA",
"< c gray95",
"1 c gray97",
"2 c gray98",
"3 c #FBFBFB",
"4 c gray99",
"5 c #FDFDFD",
"6 c #f5b7b1",
"7 c darkgreen",
/* pixels */
"        ...............         ",
" 77  77.................        ",
" 77  7...:::::::::::::...       ",
" 77  7..:::::::::::::::..       ",
" 77  7..::::::::::::::::... 77  ",
"      ..:::::::::::::::::.. 77  ",
"      ..::::::::::::::::::..77  ",
"      ..::::::::::::::::::..77  ",
"      ..::::::::::::::::::..    ",
"       ......................   ",
"       ............666666..     ",
"       ...........6666%*6..     ",
"       ..........66666..66..    ",
"       ..666....666666..66..    ",
"       ..666...6666666..666..   ",
"       ..666666666666666666..   ",
"       ..666666666666666666..   ",
"       ..666666666666666;;..    ",
"        ..6666666666666666.     ",
"        ...................     ",
"         ...::::........        ",
"          ...::::........       ",
"          ....:::.66666..       ",
"          .....:.666666..       ",
"          ...............       ",
"          ..::..........        ",
"          ..::::::::::..        ",
"  77  77  ..::::::::::..  77  77",
"  77  77  ..::::::::::..  77  77",
"  77  77  ..::::::::::..  77  77",
"  77  77  ..............  77  77",
"          ..............        "
};