/* XPM */
static char *_cfa94abb68f4177a43163b0e0a2c9d3OyI4vT7zYsDR99UZ[] = {
/* columns rows colors chars-per-pixel */
"32 32 5 1 ",
"  c black",
". c #606060",
"X c gray66",
"o c #39af44",
"b c #808080",
/* pixels */
"oooooooooooo          oooooooooo",
"oooooooooooo          oooooooooo",
"oooooooo    ..XXXXXX..    oooooo",
"oooooooo    ..XXXXXX..    oooooo",
"oooooo  ..XXbbbbbbbbbbXX..  oooo",
"oooooo  ..XXbbbbbbbbbbXX..  oooo",
"oooo  ..bbbbbbbbbbbbbbbbbb..  oo",
"oooo  ..bbbbbbbbbbbbbbbbbb..  oo",
"oooo  XXbbbbbbbbbbbbbbbbbbXX  oo",
"oooo  XXbbbbbbbbbbbbbbbbbbXX  oo",
"oooo  ..XXXXbbbbbbbbbbXXXX..  oo",
"oooo  ..XXXXbbbbbbbbbbXXXX..  oo",
"oooo  ..XX..XXXXXXXXXX..XX..  oo",
"oooo  ..XX..XXXXXXXXXX..XX..  oo",
"ooXX  ..XX....bbbbbb....XX..  oo",
"ooXX  ..XX....bbbbbb....XX..  oo",
"XXXX  XXXX....bbbbbb....XXXX  oo",
"XXXX  XXXX....bbbbbb....XXXX  oo",
"XX..  XXXXXXXXbbbbbbXXXXXXXX  oo",
"XX..  XXXXXXXXbbbbbbXXXXXXXX  oo",
"XX..  ..XXXXXXbbbbbbXXXXXX..  oo",
"XX..  ..XXXXXXbbbbbbXXXXXX..  oo",
"XX..  ..XX....bbbbbb....XX..  oo",
"XX..  ..XX....bbbbbb....XX..  oo",
"oo....  XX....bbbbbb....XX  ..oo",
"oo....  XX....bbbbbb....XX  ..oo",
"ooXX....    ..bbbbbb..    ..oooo",
"ooXX....    ..bbbbbb..    ..oooo",
"ooooXX......          ....oooooo",
"ooooXX......          ....oooooo",
"ooooooXXXXXX..........oooooooooo",
"ooooooXXXXXX..........oooooooooo"
};