/* XPM */
static char * tree_xpm[] = {
"32 32 8 1",
"A c #39af44",
"B c #4b6254",
"C c #344f5b",
"D c #6d8e4d",
"E c #39af44",
"F c #2a3450",
"G c #82ae53",
"H c #504739",
"AAAAAAAAAAAEEEBBEEAAAAAAAAAAAAAA",
"AAAAAAAAAAAEADGGBAAAAAAAAAAAAAAA",
"AAAAEEEEEEEBDBGGBBBDAAAAAAAAAAAA",
"AAAEEEEEEABDBGGGGDDDBBAAAAAAAAAA",
"AAEEEEEEABDDDGGGGDDDDBAAAAAAAAAA",
"AAAAAEEABDDDDGGGGGDDDDBBAAAAAAAA",
"AAAAAEEBDDDDDGGGGGDDDDBBEEEAAAAA",
"AAAABCBDBBDDDDGGDDDDDBBBBFCEEEEE",
"EEEDCCDDBDDDDDDDDDDDDDBBBCCBEEEE",
"EEAFBCCBBDDDDDDDDDDDDDBBBCBFEEEE",
"EAFFBCBDDBBDDDDDDDDBBBBBBBBFCDEE",
"ACFCBCBDDBBDDDDDDDDBBBBDBBBCFCEE",
"AFFCBBCBBDDBBBDGDDBBBBBBCBBBFFAE",
"ACFCBBBBDDDDDDBDDBBBBDBCBBBCFCEE",
"AFCCCBBBBBDBDDDBBBDBBDCBBBCCCFAE",
"FCCCCBBBBBBDDDBBBBDBBCBBBBCCCCFE",
"CCCCBBBBBBBBBBBBBBBBBBBBBBBCCCCE",
"ACFCCCCBBBBBBBBBBBBBBBBBCBCCFCAA",
"AAFFCCCBBBBBBBBBBBBBBBBBBCCFBAAA",
"AAFCCCCCCCBBBBBBBBBBBBCCCCCCCCAA",
"AAFCCCCCBBBBBBBBBBBBBBCCCCCBFCAA",
"AAACCCCCCCCCCBBCCBBCCCCCCCCCBAAA",
"AAAAAFCCCCCCCBCCCCBCCCCCCCCAAAAA",
"AAAAAAFBBBCCCCCCCCCCCCCBBCCAAAAA",
"AAAAAAACFFCCCCBBBCCCCFAFFCAAAAAA",
"AAAAAAACCCHBBHFFFFBHABHHCCAAAAAA",
"AAAAAAACCCHHHHBBBBBHAHBBCAAAAAAA",
"AAAAAAAACCCCCABBBBACCCCCAAAAAAAA",
"AAAAAAAAACCCCCABBHCCCCCCAAAAAAAA",
"AAAAAAAAAACCCCCCCCCCCCAAAAAAAAAA",
"AAAAAAAAAAAAAAAAAAAAAAAAAAAAAAAA",
"AAAAAAAAAAAAAAAAAAAAAAAAAAAAAAAA",
};